<svg width="72" height="72" viewBox="0 0 72 72" fill="none" xmlns="http://www.w3.org/2000/svg">
<path fill-rule="evenodd" clip-rule="evenodd" d="M36 0C31.2375 0 27.4243 3.94932 27.5912 8.70893L27.8592 16.3463L22.6482 10.7564C19.4007 7.27279 13.9118 7.17654 10.5442 10.5442C7.17653 13.9118 7.27279 19.4007 10.7564 22.6482L16.3463 27.8592L8.70893 27.5912C3.94932 27.4243 0 31.2375 0 36C0 40.7625 3.94932 44.5757 8.70893 44.4088L16.3463 44.1408L10.7564 49.3518C7.27279 52.5993 7.17654 58.0882 10.5442 61.4558C13.9118 64.8235 19.4007 64.7272 22.6482 61.2436L27.8592 55.6537L27.5912 63.2911C27.4243 68.0507 31.2375 72 36 72C40.7625 72 44.5757 68.0507 44.4088 63.2911L44.1408 55.6537L49.3518 61.2436C52.5993 64.7272 58.0882 64.8235 61.4558 61.4558C64.8235 58.0882 64.7272 52.5993 61.2436 49.3518L55.6537 44.1408L63.2911 44.4088C68.0507 44.5757 72 40.7625 72 36C72 31.2375 68.0507 27.4243 63.2911 27.5912L55.6537 27.8592L61.2436 22.6482C64.7272 19.4007 64.8235 13.9118 61.4558 10.5442C58.0882 7.17654 52.5993 7.27279 49.3518 10.7564L44.1408 16.3463L44.4088 8.70893C44.5757 3.94932 40.7625 0 36 0Z" fill="#FFE94D"/>
<path d="M19.6749 39.8243L21.8689 36.9778L22.4062 37.8123L21.2689 39.218L20.6745 39.847L21.4997 39.5764L23.2435 39.1128L23.7643 39.9217L20.2682 40.7459L19.6749 39.8243Z" fill="#151616"/>
<path d="M22.9521 43.9719C22.6875 43.7258 22.5085 43.4623 22.415 43.1814C22.3215 42.9004 22.3125 42.6149 22.3882 42.3249C22.4668 42.0377 22.6305 41.7603 22.8793 41.4928C23.1308 41.2222 23.3956 41.0388 23.6736 40.9426C23.9573 40.8461 24.2427 40.8343 24.5297 40.9072C24.8168 40.98 25.0926 41.1395 25.3571 41.3855C25.7555 41.7559 25.9597 42.1593 25.9698 42.5955C25.9829 43.0345 25.8015 43.4562 25.4255 43.8605C25.1767 44.128 24.9119 44.3114 24.6312 44.4107C24.3504 44.5099 24.0665 44.5231 23.7795 44.4502C23.4925 44.3774 23.2167 44.2179 22.9521 43.9719ZM23.4746 43.41C23.6529 43.5759 23.8535 43.6404 24.0762 43.6036C24.3019 43.5695 24.5198 43.4395 24.7299 43.2136C24.9427 42.9847 25.0566 42.758 25.0714 42.5334C25.0919 42.3086 25.013 42.1132 24.8347 41.9474C24.6533 41.7788 24.4498 41.7115 24.2241 41.7455C24.0042 41.7794 23.7878 41.9107 23.5749 42.1396C23.3648 42.3656 23.2495 42.5909 23.2289 42.8157C23.2114 43.0433 23.2932 43.2414 23.4746 43.41Z" fill="#151616"/>
<path d="M27.0765 46.8214C26.877 46.7126 26.7249 46.5718 26.6202 46.3991C26.5211 46.2248 26.4743 46.0351 26.4798 45.83C26.4873 45.6214 26.5474 45.4137 26.6601 45.207L27.9695 42.8068L29.0075 42.8875L27.4941 45.6619C27.4435 45.7546 27.4142 45.838 27.4061 45.9122C27.4035 45.9848 27.43 46.0547 27.4858 46.1221C27.547 46.1879 27.6435 46.2567 27.7754 46.3287L28.5291 46.7398L28.1617 47.4134L27.0765 46.8214ZM26.7428 43.6567L27.1102 42.9832L29.2538 44.1525L28.8864 44.8261L26.7428 43.6567Z" fill="#151616"/>
<path d="M31.2475 48.507C30.8935 48.4167 30.6062 48.2701 30.3856 48.0672C30.169 47.8653 30.0244 47.619 29.952 47.3282C29.8795 47.0374 29.8884 46.715 29.9787 46.361C30.07 46.003 30.217 45.7137 30.4199 45.4932C30.6228 45.2726 30.8711 45.1285 31.1648 45.061C31.4635 44.9905 31.7977 45.0024 32.1675 45.0967C32.7457 45.2442 33.1225 45.5162 33.2979 45.9129C33.4782 46.3066 33.4734 46.7851 33.2837 47.3483L30.6757 46.6833L30.8426 46.0534L32.5065 46.4777C32.5329 46.3253 32.4966 46.1882 32.3977 46.0667C32.2999 45.9412 32.1604 45.8553 31.9795 45.8092C31.6963 45.737 31.4652 45.7723 31.2863 45.9152C31.1075 46.0581 30.9749 46.2987 30.8886 46.637C30.8455 46.8062 30.8354 46.9691 30.8582 47.1257C30.8811 47.2824 30.9386 47.4185 31.0306 47.5341C31.1275 47.6468 31.2625 47.7253 31.4356 47.7694C31.6205 47.8165 31.7874 47.8109 31.9364 47.7526C32.0892 47.6952 32.197 47.6012 32.2597 47.4705L33.1801 47.7053C33.0455 48.0689 32.8045 48.3238 32.4573 48.4698C32.1149 48.613 31.7117 48.6253 31.2475 48.507Z" fill="#151616"/>
<path d="M36.5962 49.1127L36.566 48.4997V46.82C36.566 46.6606 36.5077 46.536 36.3909 46.4461C36.2742 46.3521 36.1132 46.3051 35.9079 46.3051C35.7107 46.3051 35.5497 46.348 35.4249 46.4338C35.3041 46.5155 35.2337 46.632 35.2136 46.7832H34.3019C34.322 46.5421 34.4025 46.3357 34.5434 46.1641C34.6843 45.9924 34.8735 45.8616 35.1109 45.7717C35.3524 45.6777 35.6322 45.6307 35.9502 45.6307C36.2641 45.6307 36.5379 45.6798 36.7713 45.7779C37.0048 45.8719 37.1839 46.0129 37.3087 46.2009C37.4375 46.3848 37.5019 46.6116 37.5019 46.8813V49.1127H36.5962ZM35.5215 49.1863C35.3001 49.1863 35.1049 49.1434 34.9358 49.0576C34.7668 48.9676 34.636 48.845 34.5434 48.6897C34.4508 48.5344 34.4045 48.3587 34.4045 48.1625C34.4045 47.8111 34.5374 47.5393 34.803 47.3472C35.0727 47.151 35.443 47.053 35.914 47.053H36.6566V47.715L35.8898 47.7212C35.7167 47.7212 35.5779 47.7539 35.4732 47.8192C35.3726 47.8805 35.3223 47.9745 35.3223 48.1012C35.3223 48.1911 35.3585 48.2688 35.4309 48.3342C35.5074 48.3996 35.6141 48.4323 35.7509 48.4323C35.9401 48.4323 36.1072 48.3853 36.2521 48.2913C36.401 48.1932 36.5238 48.0604 36.6204 47.8928L36.723 48.5365C36.6224 48.7613 36.4674 48.9268 36.2581 49.033C36.0528 49.1352 35.8073 49.1863 35.5215 49.1863Z" fill="#151616"/>
<path d="M40.8902 48.3771C40.6699 48.4332 40.4627 48.4337 40.2685 48.3785C40.0772 48.3184 39.9137 48.2113 39.7781 48.0574C39.6415 47.8995 39.5441 47.7065 39.4859 47.4783L38.8103 44.8291L39.6254 44.1813L40.4064 47.2436C40.4325 47.3459 40.4678 47.4269 40.5124 47.4868C40.5599 47.5417 40.627 47.5749 40.7137 47.5863C40.8033 47.5927 40.9209 47.5774 41.0665 47.5403L41.8984 47.3281L42.088 48.0716L40.8902 48.3771ZM38.4908 46.2868L38.3012 45.5433L40.6673 44.9399L40.8568 45.6834L38.4908 46.2868Z" fill="#151616"/>
<path d="M45.6135 46.4036L44.6162 44.5754C44.5307 44.4186 44.4234 44.3152 44.2945 44.2653C44.1656 44.2155 44.0369 44.2255 43.9086 44.2955C43.7625 44.3752 43.6543 44.499 43.584 44.6668C43.5153 44.8291 43.4784 45.0666 43.4732 45.3792L42.9736 44.7431C42.9807 44.434 43.0543 44.1789 43.1942 43.9777C43.3322 43.7729 43.501 43.6161 43.7006 43.5072C43.9287 43.3828 44.1492 43.325 44.362 43.3337C44.5784 43.3405 44.777 43.4079 44.9578 43.5359C45.1402 43.6583 45.2946 43.8354 45.421 44.067L46.4474 45.9487L45.6135 46.4036ZM43.6303 47.4855L41.4695 43.5244L42.3034 43.0694L44.4642 47.0305L43.6303 47.4855Z" fill="#151616"/>
<path d="M48.9243 44.0163C48.6597 44.2623 48.3839 44.4218 48.0969 44.4947C47.8099 44.5675 47.5245 44.5557 47.2408 44.4593C46.96 44.36 46.6952 44.1766 46.4464 43.9091C46.1949 43.6385 46.0311 43.3611 45.9553 43.0769C45.8797 42.7869 45.8886 42.5014 45.9821 42.2204C46.0756 41.9395 46.2547 41.676 46.5192 41.4299C46.9176 41.0595 47.3347 40.8851 47.7705 40.9067C48.2093 40.9255 48.6167 41.137 48.9926 41.5413C49.2414 41.8089 49.4051 42.0863 49.4838 42.3735C49.5624 42.6607 49.5549 42.9448 49.4614 43.2258C49.3679 43.5068 49.1889 43.7703 48.9243 44.0163ZM48.4018 43.4544C48.5802 43.2886 48.6591 43.0933 48.6385 42.8685C48.6209 42.6409 48.5071 42.4142 48.297 42.1882C48.0841 41.9593 47.8663 41.8293 47.6433 41.7982C47.4206 41.7614 47.2201 41.8259 47.0417 41.9918C46.8604 42.1604 46.7785 42.3585 46.7961 42.5861C46.8139 42.8079 46.9292 43.0333 47.1421 43.2622C47.3522 43.4881 47.5686 43.6195 47.7913 43.6563C48.0169 43.6904 48.2205 43.6231 48.4018 43.4544Z" fill="#151616"/>
<path d="M52.2766 39.7818L50.5204 38.6512C50.3736 38.5567 50.2317 38.5184 50.0946 38.5364C49.9575 38.5543 49.8494 38.6248 49.7703 38.7476C49.6802 38.8876 49.6445 39.0481 49.6632 39.2291C49.6806 39.4044 49.7619 39.6306 49.9071 39.9075L49.1588 39.5851C49.0204 39.3125 48.9645 39.0544 48.991 38.8108C49.0141 38.5649 49.0871 38.3464 49.2102 38.1553C49.3509 37.9368 49.5167 37.7805 49.7077 37.6862C49.901 37.5885 50.1059 37.5515 50.3225 37.575C50.5413 37.5952 50.7616 37.6767 50.9834 37.8195L52.7908 38.9831L52.2766 39.7818ZM51.0536 41.6813L48.2069 39.8486L48.7047 39.0755L49.228 39.3762L51.5679 40.8826L51.0536 41.6813Z" fill="#151616"/>
<ellipse cx="30.3111" cy="29.4222" rx="2.22222" ry="4.71111" fill="#151616"/>
<ellipse cx="42.2222" cy="29.4222" rx="2.22222" ry="4.71111" fill="#151616"/>
</svg>
