<svg width="150" height="151" viewBox="0 0 150 151" fill="none" xmlns="http://www.w3.org/2000/svg">
<path fill-rule="evenodd" clip-rule="evenodd" d="M75 0C65.0773 0 57.1319 8.22711 57.4775 18.1437L58.0399 34.2818L47.1837 22.5586C40.4181 15.2527 28.9829 15.0508 21.967 22.1134C14.9511 29.1761 15.1516 40.6876 22.4092 47.4983L34.0548 58.4269L18.2644 57.8692C8.28324 57.5167 0 65.5126 0 75.5C0 85.4874 8.28323 93.4833 18.2644 93.1308L34.0548 92.5731L22.4092 103.502C15.1516 110.312 14.9511 121.824 21.967 128.887C28.9829 135.949 40.4181 135.747 47.1837 128.441L58.0399 116.718L57.4775 132.856C57.1319 142.773 65.0773 151 75 151C84.9227 151 92.868 142.773 92.5225 132.856L91.9601 116.718L102.816 128.441C109.582 135.747 121.017 135.949 128.033 128.887C135.049 121.824 134.848 110.312 127.591 103.502L115.945 92.5731L131.736 93.1308C141.717 93.4833 150 85.4874 150 75.5C150 65.5126 141.717 57.5167 131.736 57.8692L115.945 58.4269L127.591 47.4983C134.848 40.6876 135.049 29.1761 128.033 22.1134C121.017 15.0508 109.582 15.2527 102.816 22.5586L91.9601 34.2818L92.5225 18.1437C92.868 8.22711 84.9227 0 75 0Z" fill="#151616"/>
<path d="M40.9894 83.5203L45.5603 77.5506L46.6797 79.3008L44.3104 82.2489L43.0719 83.568L44.7911 83.0006L48.424 82.0282L49.509 83.7248L42.2255 85.4531L40.9894 83.5203Z" fill="#FFFDED"/>
<path d="M47.8169 92.2188C47.2657 91.7029 46.8927 91.1502 46.6979 90.561C46.5031 89.9717 46.4844 89.373 46.642 88.7648C46.8058 88.1625 47.1468 87.5807 47.6652 87.0196C48.1893 86.4522 48.7409 86.0676 49.32 85.8657C49.9112 85.6634 50.5057 85.6386 51.1036 85.7914C51.7016 85.9443 52.2762 86.2787 52.8274 86.7947C53.6573 87.5715 54.0828 88.4174 54.1038 89.3323C54.1311 90.253 53.7531 91.1373 52.9698 91.9852C52.4515 92.5463 51.8999 92.931 51.3149 93.1391C50.73 93.3472 50.1386 93.3749 49.5406 93.2221C48.9427 93.0692 48.3681 92.7348 47.8169 92.2188ZM48.9054 91.0405C49.277 91.3883 49.6948 91.5237 50.1588 91.4464C50.6289 91.375 51.0829 91.1024 51.5206 90.6286C51.964 90.1485 52.2012 89.673 52.2321 89.202C52.2749 88.7305 52.1105 88.3209 51.7389 87.973C51.3611 87.6194 50.9371 87.4782 50.4669 87.5496C50.0087 87.6206 49.5579 87.8961 49.1144 88.3762C48.6767 88.8501 48.4365 89.3227 48.3936 89.7941C48.357 90.2714 48.5276 90.6868 48.9054 91.0405Z" fill="#FFFDED"/>
<path d="M56.4095 98.195C55.9937 97.9666 55.6769 97.6714 55.4589 97.3092C55.2523 96.9437 55.1548 96.5458 55.1663 96.1157C55.1818 95.6782 55.3071 95.2426 55.542 94.8091L58.2697 89.7754L60.4323 89.9447L57.2793 95.7632C57.174 95.9575 57.1129 96.1325 57.096 96.2881C57.0906 96.4403 57.146 96.587 57.2621 96.7284C57.3896 96.8663 57.5908 97.0107 57.8655 97.1615L59.4357 98.0239L58.6703 99.4364L56.4095 98.195ZM55.7142 91.5579L56.4797 90.1453L60.9455 92.5977L60.1801 94.0103L55.7142 91.5579Z" fill="#FFFDED"/>
<path d="M65.0991 101.73C64.3616 101.541 63.763 101.233 63.3035 100.808C62.8521 100.384 62.551 99.8677 62.4 99.2578C62.249 98.6479 62.2676 97.9718 62.4556 97.2293C62.6458 96.4786 62.9523 95.8719 63.3749 95.4093C63.7976 94.9467 64.3149 94.6446 64.9268 94.503C65.549 94.3552 66.2453 94.3802 67.0156 94.5779C68.2203 94.8872 69.0053 95.4577 69.3706 96.2896C69.7462 97.1152 69.7364 98.1187 69.3411 99.3L63.9078 97.9052L64.2555 96.5843L67.722 97.4742C67.7769 97.1544 67.7013 96.867 67.4953 96.6121C67.2914 96.3489 67.001 96.1689 66.624 96.0721C66.034 95.9206 65.5526 95.9947 65.18 96.2944C64.8073 96.5941 64.5311 97.0987 64.3513 97.8082C64.2615 98.1629 64.2404 98.5046 64.2881 98.8331C64.3358 99.1617 64.4555 99.4472 64.6471 99.6897C64.8491 99.9261 65.1304 100.091 65.491 100.183C65.8761 100.282 66.2239 100.27 66.5342 100.148C66.8527 100.027 67.0772 99.8303 67.2077 99.5563L69.1253 100.049C68.8448 100.811 68.3429 101.346 67.6194 101.652C66.9062 101.952 66.0661 101.978 65.0991 101.73Z" fill="#FFFDED"/>
<path d="M76.242 103L76.1791 101.715V98.192C76.1791 97.8577 76.0575 97.5963 75.8144 97.4077C75.5712 97.2106 75.2357 97.112 74.8081 97.112C74.3972 97.112 74.0617 97.202 73.8018 97.382C73.5502 97.5534 73.4035 97.7977 73.3615 98.1148H71.4622C71.5041 97.6092 71.6718 97.1763 71.9653 96.8163C72.2588 96.4563 72.6529 96.1821 73.1477 95.9935C73.6508 95.7964 74.2336 95.6978 74.8961 95.6978C75.5502 95.6978 76.1204 95.8007 76.6068 96.0064C77.0932 96.2035 77.4663 96.4992 77.7263 96.8935C77.9947 97.2792 78.1288 97.7549 78.1288 98.3205V103H76.242ZM74.003 103.155C73.5418 103.155 73.1351 103.065 72.7829 102.885C72.4307 102.696 72.1582 102.439 71.9653 102.113C71.7724 101.788 71.676 101.419 71.676 101.008C71.676 100.27 71.9527 99.7005 72.5062 99.2976C73.068 98.8862 73.8395 98.6805 74.8206 98.6805H76.3678V100.069L74.7703 100.082C74.4097 100.082 74.1204 100.15 73.9024 100.288C73.6928 100.416 73.5879 100.613 73.5879 100.879C73.5879 101.068 73.6634 101.23 73.8144 101.368C73.9737 101.505 74.1959 101.573 74.481 101.573C74.8752 101.573 75.2232 101.475 75.5251 101.278C75.8353 101.072 76.0911 100.793 76.2923 100.442L76.5062 101.792C76.2965 102.263 75.9737 102.61 75.5376 102.833C75.11 103.047 74.5984 103.155 74.003 103.155Z" fill="#FFFDED"/>
<path d="M85.188 101.457C84.7291 101.575 84.2973 101.576 83.8927 101.46C83.4942 101.334 83.1536 101.11 82.8711 100.787C82.5865 100.456 82.3836 100.051 82.2624 99.5726L80.8548 94.0165L82.553 92.658L84.18 99.0803C84.2343 99.2948 84.3079 99.4648 84.4008 99.5904C84.4998 99.7055 84.6396 99.7751 84.8203 99.799C85.007 99.8126 85.252 99.7804 85.5552 99.7026L87.2884 99.2576L87.6834 100.817L85.188 101.457ZM80.1892 97.0736L79.7942 95.5144L84.7235 94.249L85.1185 95.8082L80.1892 97.0736Z" fill="#FFFDED"/>
<path d="M95.0282 97.3187L92.9505 93.4845C92.7723 93.1557 92.5489 92.9389 92.2802 92.8343C92.0116 92.7297 91.7436 92.7507 91.4763 92.8975C91.1719 93.0647 90.9465 93.3243 90.8001 93.6762C90.657 94.0166 90.5801 94.5147 90.5693 95.1704L89.5284 93.8363C89.5432 93.1881 89.6964 92.653 89.988 92.231C90.2755 91.8016 90.6272 91.4727 91.0429 91.2444C91.5181 90.9835 91.9774 90.8622 92.4209 90.8805C92.8718 90.8947 93.2855 91.036 93.6622 91.3044C94.0422 91.5612 94.3638 91.9326 94.6271 92.4184L96.7655 96.3646L95.0282 97.3187ZM90.8965 99.5876L86.3948 91.2803L88.1321 90.3262L92.6338 98.6335L90.8965 99.5876Z" fill="#FFFDED"/>
<path d="M101.926 92.312C101.374 92.828 100.8 93.1624 100.202 93.3152C99.6038 93.468 99.0093 93.4433 98.4182 93.2409C97.8332 93.0328 97.2816 92.6482 96.7633 92.0871C96.2392 91.5197 95.8982 90.938 95.7402 90.3418C95.5826 89.7336 95.6012 89.1349 95.796 88.5457C95.9908 87.9564 96.3638 87.4038 96.915 86.8878C97.7449 86.1109 98.6139 85.7451 99.5218 85.7904C100.436 85.8298 101.285 86.2735 102.068 87.1214C102.586 87.6826 102.927 88.2643 103.091 88.8667C103.255 89.4691 103.239 90.0649 103.045 90.6541C102.85 91.2434 102.477 91.796 101.926 92.312ZM100.837 91.1336C101.209 90.7858 101.373 90.3761 101.33 89.9047C101.294 89.4274 101.056 88.9519 100.619 88.4781C100.175 87.998 99.7213 87.7254 99.2569 87.6602C98.7929 87.583 98.3751 87.7183 98.0035 88.0662C97.6257 88.4198 97.4551 88.8353 97.4918 89.3125C97.5288 89.7777 97.7691 90.2504 98.2126 90.7304C98.6503 91.2043 99.1011 91.4798 99.5651 91.557C100.035 91.6284 100.459 91.4873 100.837 91.1336Z" fill="#FFFDED"/>
<path d="M108.909 83.4314L105.251 81.0602C104.945 80.862 104.649 80.7817 104.364 80.8194C104.078 80.8571 103.853 81.0047 103.688 81.2625C103.5 81.5559 103.426 81.8925 103.465 82.2721C103.501 82.6399 103.67 83.1142 103.973 83.695L102.414 83.0187C102.126 82.4471 102.009 81.9058 102.064 81.3949C102.112 80.8793 102.265 80.421 102.521 80.0201C102.814 79.562 103.16 79.2341 103.558 79.0364C103.96 78.8315 104.387 78.7538 104.838 78.8032C105.294 78.8455 105.753 79.0164 106.215 79.316L109.981 81.7563L108.909 83.4314ZM106.362 87.415L100.431 83.5714L101.468 81.95L102.558 82.5807L107.433 85.74L106.362 87.415Z" fill="#FFFDED"/>
<ellipse cx="63.1482" cy="61.7049" rx="4.62963" ry="9.88025" fill="#FFFDED"/>
<ellipse cx="87.9629" cy="61.7049" rx="4.62963" ry="9.88025" fill="#FFFDED"/>
</svg>