<svg width="40" height="41" viewBox="0 0 40 41" fill="none" xmlns="http://www.w3.org/2000/svg">
<g clip-path="url(#clip0_122_718)">
<path fill-rule="evenodd" clip-rule="evenodd" d="M25.8851 15.8649C26.0015 15.981 26.0939 16.119 26.1569 16.2708C26.2199 16.4227 26.2523 16.5855 26.2523 16.7499C26.2523 16.9143 26.2199 17.0772 26.1569 17.229C26.0939 17.3809 26.0015 17.5188 25.8851 17.6349L18.3851 25.1349C18.269 25.2513 18.1311 25.3437 17.9792 25.4067C17.8273 25.4697 17.6645 25.5022 17.5001 25.5022C17.3357 25.5022 17.1729 25.4697 17.021 25.4067C16.8692 25.3437 16.7312 25.2513 16.6151 25.1349L12.8651 21.3849C12.7489 21.2687 12.6567 21.1307 12.5938 20.9789C12.5309 20.827 12.4985 20.6643 12.4985 20.4999C12.4985 20.3356 12.5309 20.1728 12.5938 20.021C12.6567 19.8691 12.7489 19.7311 12.8651 19.6149C12.9813 19.4987 13.1193 19.4065 13.2712 19.3436C13.423 19.2807 13.5858 19.2484 13.7501 19.2484C13.9145 19.2484 14.0772 19.2807 14.2291 19.3436C14.3809 19.4065 14.5189 19.4987 14.6351 19.6149L17.5001 22.4824L24.1151 15.8649C24.2312 15.7485 24.3692 15.6562 24.521 15.5931C24.6729 15.5301 24.8357 15.4977 25.0001 15.4977C25.1645 15.4977 25.3273 15.5301 25.4792 15.5931C25.6311 15.6562 25.769 15.7485 25.8851 15.8649Z" fill="#F0F0F0"/>
<path d="M25.682 6.78183L23.3795 4.42183L25.167 2.67683L26.722 4.26933L28.947 4.24183C29.9101 4.23043 30.8658 4.41173 31.7578 4.77505C32.6498 5.13838 33.4602 5.6764 34.1413 6.35748C34.8224 7.03856 35.3604 7.84895 35.7237 8.74098C36.0871 9.63302 36.2684 10.5887 36.257 11.5518L36.232 13.7768L37.822 15.3318C38.5106 16.0048 39.0578 16.8085 39.4314 17.6959C39.805 18.5834 39.9974 19.5365 39.9974 20.4993C39.9974 21.4622 39.805 22.4153 39.4314 23.3027C39.0578 24.1901 38.5106 24.9939 37.822 25.6668L36.2295 27.2218L36.257 29.4468C36.2684 30.41 36.0871 31.3656 35.7237 32.2577C35.3604 33.1497 34.8224 33.9601 34.1413 34.6412C33.4602 35.3223 32.6498 35.8603 31.7578 36.2236C30.8658 36.5869 29.9101 36.7682 28.947 36.7568L26.722 36.7318L25.167 38.3218C24.494 39.0105 23.6902 39.5577 22.8028 39.9313C21.9154 40.3049 20.9623 40.4973 19.9995 40.4973C19.0366 40.4973 18.0835 40.3049 17.1961 39.9313C16.3087 39.5577 15.5049 39.0105 14.832 38.3218L13.277 36.7293L11.052 36.7568C10.0888 36.7682 9.13315 36.5869 8.24111 36.2236C7.34907 35.8603 6.53868 35.3223 5.8576 34.6412C5.17652 33.9601 4.6385 33.1497 4.27517 32.2577C3.91185 31.3656 3.73055 30.41 3.74195 29.4468L3.76695 27.2218L2.17695 25.6668C1.4883 24.9939 0.941104 24.1901 0.56751 23.3027C0.193916 22.4153 0.00146484 21.4622 0.00146484 20.4993C0.00146484 19.5365 0.193916 18.5834 0.56751 17.6959C0.941104 16.8085 1.4883 16.0048 2.17695 15.3318L3.76945 13.7768L3.74195 11.5518C3.73055 10.5887 3.91185 9.63302 4.27517 8.74098C4.6385 7.84895 5.17652 7.03856 5.8576 6.35748C6.53868 5.6764 7.34907 5.13838 8.24111 4.77505C9.13315 4.41173 10.0888 4.23043 11.052 4.24183L13.277 4.26683L14.832 2.67683C15.5049 1.98818 16.3087 1.44098 17.1961 1.06739C18.0835 0.693794 19.0366 0.501343 19.9995 0.501343C20.9623 0.501343 21.9154 0.693794 22.8028 1.06739C23.6902 1.44098 24.494 1.98818 25.167 2.67683L23.3795 4.42183C22.9394 3.9713 22.4136 3.61329 21.8332 3.36887C21.2527 3.12444 20.6293 2.99853 19.9995 2.99853C19.3696 2.99853 18.7462 3.12444 18.1657 3.36887C17.5853 3.61329 17.0595 3.9713 16.6195 4.42183L14.3195 6.78183L11.0195 6.74183C10.3899 6.73479 9.76528 6.85364 9.18231 7.0914C8.59933 7.32916 8.06975 7.68102 7.62468 8.12633C7.1796 8.57164 6.82801 9.1014 6.59056 9.6845C6.35311 10.2676 6.23459 10.8923 6.24195 11.5218L6.28195 14.8168L3.92195 17.1193C3.47142 17.5594 3.11342 18.0852 2.86899 18.6656C2.62457 19.2461 2.49865 19.8695 2.49865 20.4993C2.49865 21.1291 2.62457 21.7526 2.86899 22.3331C3.11342 22.9135 3.47142 23.4392 3.92195 23.8793L6.28195 26.1793L6.24195 29.4793C6.23491 30.1089 6.35377 30.7335 6.59152 31.3165C6.82928 31.8995 7.18115 32.429 7.62645 32.8741C8.07176 33.3192 8.60153 33.6708 9.18463 33.9082C9.76773 34.1457 10.3924 34.2642 11.022 34.2568L14.317 34.2168L16.6195 36.5768C17.0595 37.0274 17.5853 37.3854 18.1657 37.6298C18.7462 37.8742 19.3696 38.0001 19.9995 38.0001C20.6293 38.0001 21.2527 37.8742 21.8332 37.6298C22.4136 37.3854 22.9394 37.0274 23.3795 36.5768L25.6795 34.2168L28.9795 34.2568C29.609 34.2639 30.2336 34.145 30.8166 33.9073C31.3996 33.6695 31.9292 33.3176 32.3742 32.8723C32.8193 32.427 33.1709 31.8973 33.4083 31.3142C33.6458 30.7311 33.7643 30.1064 33.757 29.4768L33.717 26.1818L36.077 23.8793C36.5275 23.4392 36.8855 22.9135 37.1299 22.3331C37.3743 21.7526 37.5003 21.1291 37.5003 20.4993C37.5003 19.8695 37.3743 19.2461 37.1299 18.6656C36.8855 18.0852 36.5275 17.5594 36.077 17.1193L33.717 14.8193L33.757 11.5193C33.764 10.8898 33.6451 10.2652 33.4074 9.68219C33.1696 9.09921 32.8178 8.56963 32.3725 8.12455C31.9271 7.67948 31.3974 7.32789 30.8143 7.09044C30.2312 6.85299 29.6065 6.73446 28.977 6.74183L25.682 6.78183Z" fill="#F0F0F0"/>
</g>
<defs>
<clipPath id="clip0_122_718">
<rect width="40" height="40" fill="white" transform="translate(0 0.5)"/>
</clipPath>
</defs>
</svg>
